<svg width="48" height="48" viewBox="0 0 48 48" fill="none" xmlns="http://www.w3.org/2000/svg">
<rect width="48" height="48" rx="4" fill="#0C0D36"/>
<path d="M23 18H26L29.29 14.7C29.3829 14.6063 29.4935 14.5319 29.6154 14.4811C29.7373 14.4303 29.868 14.4042 30 14.4042C30.132 14.4042 30.2627 14.4303 30.3846 14.4811C30.5064 14.5319 30.617 14.6063 30.71 14.7L33.29 17.29C33.4762 17.4774 33.5808 17.7308 33.5808 17.995C33.5808 18.2592 33.4762 18.5126 33.29 18.7L31 21H23V23C23 23.2652 22.8946 23.5196 22.7071 23.7071C22.5196 23.8946 22.2652 24 22 24C21.7348 24 21.4804 23.8946 21.2929 23.7071C21.1053 23.5196 21 23.2652 21 23V20C21 19.4696 21.2107 18.9609 21.5858 18.5858C21.9608 18.2107 22.4695 18 23 18ZM17 23V27L14.71 29.29C14.5237 29.4774 14.4192 29.7308 14.4192 29.995C14.4192 30.2592 14.5237 30.5126 14.71 30.7L17.29 33.29C17.3829 33.3837 17.4935 33.4581 17.6154 33.5089C17.7373 33.5597 17.868 33.5858 18 33.5858C18.132 33.5858 18.2627 33.5597 18.3846 33.5089C18.5064 33.4581 18.617 33.3837 18.71 33.29L23 29H27C27.2652 29 27.5196 28.8946 27.7071 28.7071C27.8946 28.5196 28 28.2652 28 28V27H29C29.2652 27 29.5196 26.8946 29.7071 26.7071C29.8946 26.5196 30 26.2652 30 26V25H31C31.2652 25 31.5196 24.8946 31.7071 24.7071C31.8946 24.5196 32 24.2652 32 24V23H25V24C25 24.5304 24.7893 25.0391 24.4142 25.4142C24.0391 25.7893 23.5304 26 23 26H21C20.4695 26 19.9608 25.7893 19.5858 25.4142C19.2107 25.0391 19 24.5304 19 24V21L17 23Z" fill="white"/>
</svg>
