<svg width="48" height="48" viewBox="0 0 48 48" fill="none" xmlns="http://www.w3.org/2000/svg">
<rect width="48" height="48" rx="4" fill="#0C0D36"/>
<path d="M20.28 12.5378C20.3257 12.3823 20.4205 12.2457 20.5503 12.1487C20.6801 12.0516 20.8379 11.9992 21 11.9993H27C27.1187 11.9994 27.2358 12.0277 27.3415 12.0818C27.4472 12.136 27.5385 12.2145 27.6079 12.3109C27.6774 12.4073 27.7229 12.5188 27.7408 12.6362C27.7587 12.7536 27.7485 12.8736 27.711 12.9863L25.041 20.9993H30.75C30.8904 20.9992 31.0281 21.0385 31.1472 21.1128C31.2664 21.1871 31.3624 21.2934 31.4241 21.4195C31.4859 21.5457 31.5109 21.6866 31.4965 21.8264C31.4821 21.9661 31.4287 22.0989 31.3425 22.2098L20.8425 35.7098C20.7349 35.8487 20.5819 35.9455 20.4103 35.9832C20.2387 36.0209 20.0592 35.9972 19.9033 35.9161C19.7474 35.835 19.6249 35.7018 19.5572 35.5396C19.4895 35.3774 19.481 35.1966 19.533 35.0288L22.2345 26.2493H17.25C17.1333 26.2493 17.0183 26.2222 16.914 26.1701C16.8098 26.1179 16.7191 26.0422 16.6492 25.9488C16.5793 25.8555 16.5321 25.7471 16.5114 25.6324C16.4907 25.5176 16.4971 25.3996 16.53 25.2878L20.28 12.5378Z" fill="white"/>
</svg>
