<svg width="48" height="48" viewBox="0 0 48 48" fill="none" xmlns="http://www.w3.org/2000/svg">
<rect width="48" height="48" rx="4" fill="#0C0D36"/>
<g clip-path="url(#clip0_1_33)">
<path d="M13.5 15C11.8453 15 10.5 16.3453 10.5 18V30C10.5 31.6547 11.8453 33 13.5 33H34.5C36.1547 33 37.5 31.6547 37.5 30V18C37.5 16.3453 36.1547 15 34.5 15H13.5ZM16.5 30H13.5V27C15.1547 27 16.5 28.3453 16.5 30ZM13.5 21V18H16.5C16.5 19.6547 15.1547 21 13.5 21ZM31.5 30C31.5 28.3453 32.8453 27 34.5 27V30H31.5ZM34.5 21C32.8453 21 31.5 19.6547 31.5 18H34.5V21ZM18.75 24C18.75 23.3106 18.8858 22.6279 19.1496 21.9909C19.4135 21.354 19.8002 20.7752 20.2877 20.2877C20.7752 19.8002 21.354 19.4135 21.9909 19.1496C22.6279 18.8858 23.3106 18.75 24 18.75C24.6894 18.75 25.3721 18.8858 26.0091 19.1496C26.646 19.4135 27.2248 19.8002 27.7123 20.2877C28.1998 20.7752 28.5865 21.354 28.8504 21.9909C29.1142 22.6279 29.25 23.3106 29.25 24C29.25 24.6894 29.1142 25.3721 28.8504 26.0091C28.5865 26.646 28.1998 27.2248 27.7123 27.7123C27.2248 28.1998 26.646 28.5865 26.0091 28.8504C25.3721 29.1142 24.6894 29.25 24 29.25C23.3106 29.25 22.6279 29.1142 21.9909 28.8504C21.354 28.5865 20.7752 28.1998 20.2877 27.7123C19.8002 27.2248 19.4135 26.646 19.1496 26.0091C18.8858 25.3721 18.75 24.6894 18.75 24ZM22.3125 21.75C22.3125 22.2047 22.6359 22.5797 23.0625 22.6688V24.9375H22.875C22.3594 24.9375 21.9375 25.3594 21.9375 25.875C21.9375 26.3906 22.3594 26.8125 22.875 26.8125H25.125C25.6406 26.8125 26.0625 26.3906 26.0625 25.875C26.0625 25.3594 25.6406 24.9375 25.125 24.9375H24.9375V21.75C24.9375 21.2344 24.5156 20.8125 24 20.8125H23.25C22.7344 20.8125 22.3125 21.2344 22.3125 21.75Z" fill="white"/>
</g>
<defs>
<clipPath id="clip0_1_33">
<rect width="27" height="24" fill="white" transform="translate(10.5 12)"/>
</clipPath>
</defs>
</svg>
